<?xml version="1.0" standalone="no"?>
<!DOCTYPE svg PUBLIC "-//W3C//DTD SVG 20010904//EN"
 "http://www.w3.org/TR/2001/REC-SVG-20010904/DTD/svg10.dtd">
<svg version="1.0" xmlns="http://www.w3.org/2000/svg"
 width="539.000000pt" height="539.000000pt" viewBox="0 0 539.000000 539.000000"
 preserveAspectRatio="xMidYMid meet">
<metadata>
Created by potrace 1.14, written by Peter Selinger 2001-2017
</metadata>
<g transform="translate(0.000000,539.000000) scale(0.100000,-0.100000)"
fill="#000000" stroke="none">
<path d="M1968 4829 l-66 -130 283 -562 c156 -309 364 -722 460 -917 97 -195
180 -357 183 -360 4 -3 50 -90 102 -195 53 -104 208 -410 345 -680 347 -683
343 -675 336 -679 -3 -2 -358 -4 -789 -3 l-782 0 6 21 c4 12 23 53 44 91 l36
70 -66 138 -67 138 -20 -33 c-10 -18 -63 -121 -117 -229 l-99 -195 -648 -1
c-357 0 -649 3 -649 8 0 8 219 444 480 954 122 239 320 629 575 1132 l118 233
-32 67 c-46 95 -93 187 -100 195 -3 4 -84 -147 -179 -335 -365 -719 -579
-1140 -687 -1352 -62 -121 -206 -404 -320 -630 -115 -225 -221 -434 -235 -462
l-28 -53 52 -1 c28 0 383 0 788 0 688 0 736 -1 730 -17 -3 -9 -68 -139 -144
-288 -76 -150 -138 -276 -138 -282 0 -6 470 -9 1305 -9 l1304 -1 -13 27 c-8
14 -34 69 -59 122 l-45 96 -1051 -1 c-578 -1 -1051 1 -1051 3 0 2 14 28 30 58
17 29 27 53 23 53 -5 0 -3 4 3 8 6 4 35 57 65 117 l56 110 1049 2 c577 1 1052
3 1056 3 4 0 -44 100 -106 222 -62 123 -193 381 -291 573 -173 342 -465 916
-591 1164 -39 76 -60 129 -55 135 5 6 82 155 171 331 89 176 166 323 169 328
8 8 51 -74 611 -1178 494 -973 612 -1206 639 -1255 17 -30 116 -228 221 -440
105 -212 201 -405 214 -430 l23 -45 137 -1 c75 -1 136 3 136 7 0 8 -131 268
-745 1474 -78 154 -227 447 -330 650 -103 204 -238 469 -300 590 -62 121 -199
391 -305 600 -107 209 -216 424 -243 477 -27 54 -54 95 -59 92 -8 -5 -28 -44
-33 -64 0 -3 -8 -18 -17 -35 -19 -36 -221 -432 -343 -673 -48 -95 -88 -172
-90 -170 -1 2 -70 136 -153 298 -82 162 -219 432 -304 600 -86 168 -195 383
-243 478 -48 94 -88 172 -89 172 -1 0 -31 -59 -68 -131z"/>
<path d="M2466 2613 c-53 -14 -96 -93 -86 -159 16 -103 116 -159 202 -113 34
18 68 75 71 120 9 108 -80 179 -187 152z"/>
<path d="M2220 2182 c-115 -57 -104 -233 17 -273 126 -41 226 107 153 226 -22
35 -73 65 -112 65 -12 0 -39 -8 -58 -18z"/>
</g>
</svg>
