<?xml version="1.0" encoding="UTF-8" standalone="no"?>
<svg
   version="1.0"
   width="1513.7028pt"
   height="312.32898pt"
   viewBox="0 0 1513.7028 312.32898"
   preserveAspectRatio="xMidYMid"
   id="svg6"
   sodipodi:docname="arkose-logo-text2.svg"
   inkscape:version="1.3 (0e150ed, 2023-07-21)"
   xmlns:inkscape="http://www.inkscape.org/namespaces/inkscape"
   xmlns:sodipodi="http://sodipodi.sourceforge.net/DTD/sodipodi-0.dtd"
   xmlns="http://www.w3.org/2000/svg"
   xmlns:svg="http://www.w3.org/2000/svg">
  <defs
     id="defs6" />
  <sodipodi:namedview
     id="namedview6"
     pagecolor="#ffffff"
     bordercolor="#000000"
     borderopacity="0.25"
     inkscape:showpageshadow="2"
     inkscape:pageopacity="0.0"
     inkscape:pagecheckerboard="0"
     inkscape:deskcolor="#d1d1d1"
     inkscape:document-units="pt"
     inkscape:zoom="0.13201439"
     inkscape:cx="534.0327"
     inkscape:cy="151.49864"
     inkscape:window-width="1312"
     inkscape:window-height="449"
     inkscape:window-x="0"
     inkscape:window-y="25"
     inkscape:window-maximized="0"
     inkscape:current-layer="svg6" />
  <g
     transform="matrix(0.1,0,0,-0.1,-558.29722,411.30174)"
     fill="#000000"
     stroke="none"
     id="g6">
    <path
       d="m 6300,2588 c -392,-843 -715,-1536 -717,-1541 -2,-4 104,-6 237,-5 l 241,3 158,345 158,345 620,3 619,2 150,-347 150,-348 242,-3 c 133,-1 242,0 242,3 0,10 -1371,3060 -1379,3068 -4,4 -329,-682 -721,-1525 z m 919,65 c 112,-258 206,-474 208,-480 4,-10 -85,-13 -427,-13 -342,0 -431,3 -427,13 22,57 432,947 437,947 3,0 97,-210 209,-467 z"
       id="path1" />
    <path
       d="m 14705,3988 c -294,-17 -565,-118 -800,-296 -132,-100 -300,-281 -387,-418 -266,-416 -290,-1013 -58,-1474 141,-279 397,-523 705,-670 193,-92 347,-128 576,-137 464,-17 844,131 1162,453 289,294 427,632 427,1045 0,269 -63,511 -192,735 -67,118 -122,189 -237,308 -328,338 -711,483 -1196,454 z m 245,-418 c 250,-31 432,-121 616,-304 234,-235 324,-474 311,-830 -4,-118 -11,-170 -30,-241 -102,-366 -400,-665 -752,-755 -396,-101 -773,9 -1058,309 -132,139 -220,301 -263,487 -24,99 -27,407 -6,494 53,217 136,372 281,523 234,244 560,358 901,317 z"
       id="path2" />
    <path
       d="m 17605,3990 c -211,-25 -373,-100 -519,-239 -144,-138 -214,-290 -223,-486 -9,-205 46,-359 182,-503 123,-131 251,-208 549,-331 337,-140 443,-216 513,-367 38,-83 45,-231 15,-331 -71,-230 -286,-362 -533,-324 -217,34 -343,168 -391,417 -12,60 -23,111 -24,113 -2,2 -102,-19 -224,-45 l -220,-49 6,-45 c 10,-66 50,-203 86,-288 66,-158 203,-317 346,-401 260,-152 651,-162 926,-25 135,67 268,185 350,308 92,139 134,279 143,471 14,336 -105,570 -385,752 -98,65 -206,117 -442,213 -216,88 -279,122 -344,181 -74,68 -101,126 -101,219 0,62 5,85 28,132 34,69 111,142 186,175 114,51 287,52 398,3 57,-25 135,-100 185,-177 22,-35 45,-63 51,-63 17,0 339,194 344,207 8,21 -90,157 -177,243 -122,122 -264,199 -420,229 -81,15 -225,21 -305,11 z"
       id="path3" />
    <path
       d="M 8750,2491 V 1040 h 225 225 v 595 595 h 29 c 16,0 36,-6 43,-13 7,-8 195,-275 418,-595 l 405,-582 h 273 273 l -20,28 c -10,15 -211,290 -445,612 -234,322 -426,588 -426,591 0,3 28,13 61,23 208,57 387,210 484,411 56,118 75,195 82,335 6,130 -5,222 -42,337 -36,115 -88,196 -191,299 -77,78 -105,99 -185,138 -52,25 -128,54 -169,65 -178,48 -228,53 -642,58 l -398,5 z m 865,1005 c 153,-42 262,-129 305,-243 63,-169 22,-382 -96,-493 -101,-96 -238,-138 -476,-147 l -148,-6 v 458 457 l 178,-5 c 120,-3 196,-10 237,-21 z"
       id="path4" />
    <path
       d="M 11060,2490 V 1040 h 225 225 v 603 603 l 38,37 c 21,20 40,37 44,37 3,0 239,-288 523,-640 l 518,-640 h 293 c 162,0 294,3 293,8 0,4 -294,360 -654,792 l -654,785 650,650 c 357,358 649,653 649,658 0,4 -132,7 -292,7 h -293 l -555,-570 -555,-570 -3,570 -2,570 h -225 -225 z"
       id="path5" />
    <path
       d="M 19110,2490 V 1040 h 805 805 l -2,208 -3,207 -577,3 -578,2 v 480 480 h 560 560 v 205 205 h -560 -560 v 345 345 l 578,2 577,3 3,208 2,207 h -805 -805 z"
       id="path6" />
  </g>
</svg>
