<?xml version="1.0" standalone="no"?>
<!DOCTYPE svg PUBLIC "-//W3C//DTD SVG 20010904//EN"
 "http://www.w3.org/TR/2001/REC-SVG-20010904/DTD/svg10.dtd">
<svg version="1.0" xmlns="http://www.w3.org/2000/svg"
 width="512pt" height="512pt" viewBox="0 0 512 512"
 preserveAspectRatio="xMidYMid meet">

<g transform="translate(0,512) scale(0.1,-0.1)"
fill="#ddd" stroke="none">
<path stroke="#ddd" stroke-width="100" d="M292 5099 c-26 -13 -55 -39 -70 -62 l-27 -41 -3 -1201 -2 -1202 21
-27 c28 -36 80 -36 108 0 21 27 21 33 21 825 l0 799 1920 0 1920 0 0 -213 0
-214 -166 -349 c-92 -192 -167 -361 -167 -376 -1 -56 70 -90 116 -55 9 6 50
83 92 170 42 86 78 157 81 157 9 0 448 -210 455 -218 9 -9 -815 -1738 -827
-1735 -23 5 -449 212 -451 220 -2 4 116 258 261 563 145 305 267 565 271 578
15 49 -49 101 -101 82 -21 -8 -44 -48 -122 -210 l-96 -200 -1121 0 c-1074 0
-1123 -1 -1138 -18 -24 -27 -22 -85 4 -108 20 -18 55 -19 1101 -22 868 -2
1079 -5 1075 -15 -3 -7 -42 -92 -88 -190 l-84 -177 -1243 0 c-857 0 -1249 -3
-1263 -11 -48 -25 -44 -105 7 -128 18 -8 354 -11 1224 -11 660 0 1200 -2 1200
-5 0 -3 -16 -36 -35 -74 -31 -62 -35 -79 -41 -185 l-7 -116 -1164 -2 -1165 -3
-19 -24 c-25 -30 -24 -62 2 -95 l20 -26 1153 0 c634 0 1155 -2 1157 -4 2 -3
-1 -83 -8 -178 -17 -251 -16 -318 5 -344 41 -51 101 -57 154 -16 20 15 167
149 327 297 l290 270 153 322 153 323 3 -837 c1 -609 -1 -839 -9 -849 -16 -19
-3798 -21 -3817 -2 -9 9 -12 261 -12 1070 l0 1059 -25 24 c-31 32 -69 32 -101
0 l-24 -24 2 -1084 3 -1083 27 -41 c16 -24 44 -49 70 -62 l44 -21 1924 0 1924
0 44 21 c26 13 54 38 70 62 l27 41 5 1035 5 1036 284 590 c156 325 290 610
297 634 32 100 2 204 -80 286 -40 40 -80 64 -191 115 -138 64 -141 65 -227 65
l-88 0 -2 556 -3 555 -27 41 c-16 24 -44 49 -70 62 l-44 21 -1925 0 -1924 0
-43 -21z m3876 -141 c9 -9 12 -93 12 -315 l0 -303 -1920 0 -1920 0 0 303 c0
222 3 306 12 315 17 17 3799 17 3816 0z m434 -1284 c132 -64 166 -96 175 -161
4 -32 -5 -59 -51 -158 -31 -65 -58 -120 -60 -122 -4 -4 -447 204 -459 216 -9
9 95 231 120 253 59 53 120 47 275 -28z m-1123 -2349 c105 -49 191 -92 191
-95 0 -3 -40 -42 -88 -87 l-88 -81 -117 56 -117 55 0 41 c0 77 13 207 20 204
4 -2 94 -43 199 -93z m-110 -371 c5 -4 -118 -123 -129 -124 -6 0 -1 148 5 168
3 9 20 5 62 -13 31 -14 59 -28 62 -31z"/>
<path d="M2908 4706 c-12 -6 -29 -24 -38 -39 -13 -24 -13 -30 0 -54 41 -74
140 -53 140 29 0 53 -55 87 -102 64z"/>
<path d="M781 4684 c-12 -15 -21 -33 -21 -40 0 -29 25 -64 53 -74 20 -7 303
-10 849 -10 699 0 823 2 847 15 46 23 55 76 21 113 l-21 22 -854 0 -854 0 -20
-26z"/>
<path d="M3270 4690 c-11 -11 -20 -33 -20 -49 0 -71 80 -101 127 -47 28 33 29
56 2 90 -26 33 -79 36 -109 6z"/>
<path d="M3667 4699 c-46 -27 -41 -105 9 -128 35 -16 48 -14 78 10 51 40 23
129 -41 129 -16 0 -36 -5 -46 -11z"/>
<path d="M993 3685 c-62 -27 -64 -41 -61 -381 l3 -306 33 -29 32 -29 163 0
c154 0 166 1 214 25 114 57 155 206 87 322 -13 23 -33 48 -44 56 -18 12 -19
18 -8 68 27 132 -40 252 -159 280 -60 14 -223 10 -260 -6z m251 -156 c35 -28
36 -80 1 -114 -21 -22 -33 -25 -95 -25 l-70 0 0 80 0 80 69 0 c54 0 74 -4 95
-21z m72 -297 c16 -10 34 -48 34 -70 0 -11 -9 -31 -21 -46 -20 -25 -23 -26
-135 -26 l-114 0 0 75 0 75 113 0 c61 0 117 -4 123 -8z"/>
<path d="M1703 3690 c-12 -5 -26 -18 -32 -29 -7 -13 -11 -134 -11 -346 l0
-326 25 -24 c24 -25 25 -25 233 -25 205 0 209 0 230 23 31 33 29 80 -4 106
-24 19 -40 21 -180 21 l-154 0 0 279 c0 251 -2 281 -17 299 -21 25 -60 35 -90
22z"/>
<path d="M2478 3687 c-26 -8 -55 -20 -65 -27 -52 -39 -78 -70 -99 -115 -22
-47 -24 -61 -24 -230 0 -154 3 -186 19 -220 44 -94 142 -155 252 -155 92 0
154 24 211 81 69 69 81 118 76 322 -4 180 -12 210 -80 277 -66 67 -190 95
-290 67z m163 -160 c18 -12 39 -34 46 -47 18 -36 17 -280 -1 -325 -20 -47 -65
-68 -134 -63 -47 4 -60 10 -84 37 l-28 31 0 158 c0 174 5 192 64 218 47 20 98
17 137 -9z"/>
<path d="M3125 3685 c-58 -20 -121 -93 -134 -156 -17 -77 -14 -385 4 -445 16
-55 63 -110 112 -130 40 -17 265 -19 314 -3 52 18 97 56 121 102 29 55 32 204
6 253 -37 68 -106 104 -201 104 -56 0 -97 -32 -97 -75 0 -14 11 -37 25 -50 19
-20 34 -25 74 -25 62 0 76 -19 68 -93 -6 -71 -19 -77 -149 -77 -146 0 -140 -9
-136 235 4 239 -8 225 194 225 131 0 146 2 164 20 30 30 27 83 -6 109 -24 19
-40 21 -173 21 -99 -1 -159 -5 -186 -15z"/>
</g>
</svg>
