<?xml version="1.0" encoding="utf-8"?>
<!-- Generator: Adobe Illustrator 19.0.0, SVG Export Plug-In . SVG Version: 6.00 Build 0)  -->
<svg version="1.2" baseProfile="tiny" id="_x31_" xmlns="http://www.w3.org/2000/svg" xmlns:xlink="http://www.w3.org/1999/xlink"
	 x="0px" y="0px" viewBox="-63 65 128 128" xml:space="preserve">
<path d="M-38,67v10.9h-12.7v114.5h93v-10.9H55V67H-38z M36.5,175.8v5.7v5.3H-45V83.6h7h5.7h68.9v92.2H36.5z M49.2,175.8h-7V77.9
	h-74.5v-5.3h81.5V175.8z M-35.9,95h30.7v31h-30.7V95z M-5.1,138.8h30.7v31H-5.1V138.8z M1.5,97.4H26v5.3H1.5V97.4z M1.5,107.9H26
	v5.3H1.5V107.9z M1.5,118.3H26v5.3H1.5V118.3z M-35.9,162.2h24.5v5.3h-24.5V162.2z M-35.9,141.3h24.5v5.3h-24.5V141.3z M-35.9,151.8
	h24.5v5.3h-24.5V151.8z M-35.9,162.2h24.5v5.3h-24.5V162.2z"/>
</svg>
