<svg xmlns="http://www.w3.org/2000/svg" xmlns:xlink="http://www.w3.org/1999/xlink" version="1.1" x="0px" y="0px" viewBox="20 10 64 80" style="enable-background:new 0 0 100 100;" xml:space="preserve"><g><path d="M71.2,85.4c3.3,0,6-2.7,6-6V34.9h0c0-0.5-0.2-1.1-0.6-1.5L57.2,15.1c-0.4-0.4-0.9-0.5-1.4-0.5v0h-27c-3.3,0-6,2.7-6,6v58.8   c0,3.3,2.7,6,6,6H71.2z M57.8,21.2l12.4,11.6H57.8V21.2z M26.8,79.4V20.6c0-1.1,0.9-2,2-2h25v16.3c0,1.1,0.9,2,2,2h17.4v42.5   c0,1.1-0.9,2-2,2H28.8C27.7,81.4,26.8,80.5,26.8,79.4z"/><rect x="32.3" y="51.9" width="17.5" height="4"/><rect x="32.3" y="65" width="31.5" height="4"/></g></svg>