<?xml version="1.0" standalone="no"?>
<!DOCTYPE svg PUBLIC "-//W3C//DTD SVG 20010904//EN"
 "http://www.w3.org/TR/2001/REC-SVG-20010904/DTD/svg10.dtd">
<svg version="1.0" xmlns="http://www.w3.org/2000/svg"
 width="512pt" height="512pt" viewBox="0 0 512 512"
 preserveAspectRatio="xMidYMid meet">

<g transform="translate(0,512) scale(0.1,-0.1)"
fill="#000000" stroke="none">
<path d="M626 5044 c-13 -13 -16 -43 -16 -170 l0 -154 -150 0 c-137 0 -152 -2
-170 -20 -20 -20 -20 -33 -20 -2309 0 -2165 1 -2290 18 -2310 l17 -21 1449 0
c1066 0 1452 3 1462 11 11 9 14 47 14 165 l0 154 335 0 336 0 24 25 c23 22 25
32 25 117 l0 92 213 -211 c175 -175 222 -217 270 -238 171 -79 370 19 407 201
7 30 9 74 5 97 -16 101 -27 113 -470 557 l-425 425 0 1600 0 1599 -202 203
-202 203 -1452 0 c-1307 0 -1454 -2 -1468 -16z m2834 -268 c0 -149 2 -175 17
-187 12 -10 60 -15 185 -17 l168 -3 0 -1580 c0 -868 -3 -1579 -8 -1579 -4 0
-57 49 -117 110 l-110 110 18 27 c39 60 97 192 119 273 32 119 32 346 -1 465
-88 324 -342 578 -666 667 -114 31 -355 31 -467 0 -149 -41 -290 -118 -398
-219 l-57 -52 -482 -3 c-464 -3 -483 -4 -497 -22 -21 -29 -17 -63 8 -80 19
-14 79 -16 449 -16 l426 0 -48 -97 c-46 -94 -80 -204 -94 -305 l-6 -48 -355 0
c-341 0 -355 -1 -374 -20 -24 -24 -25 -49 -6 -76 14 -18 31 -19 374 -22 l360
-3 7 -42 c16 -109 51 -226 95 -313 l47 -94 -430 0 c-386 0 -432 -2 -449 -17
-22 -20 -23 -56 -2 -77 14 -14 72 -16 491 -16 l475 0 66 -61 c130 -118 278
-193 456 -230 211 -44 459 -3 639 106 32 19 61 35 65 35 4 0 57 -49 117 -110
l109 -110 -32 -33 c-18 -18 -32 -43 -32 -57 0 -17 42 -66 155 -180 l155 -156
0 -117 0 -117 -1555 0 -1555 0 0 2220 0 2220 1370 0 1370 0 0 -174z m210 -1
l85 -85 -93 0 -92 0 0 85 c0 47 3 85 8 85 4 0 45 -38 92 -85z m-3060 -2264 l0
-2090 22 -15 c20 -14 156 -16 1255 -16 l1233 0 0 -110 0 -110 -1365 0 -1365 0
0 2215 0 2215 110 0 110 0 0 -2089z m2425 439 c291 -74 520 -309 591 -606 25
-104 23 -278 -5 -383 -62 -237 -217 -425 -436 -531 -121 -59 -227 -84 -355
-84 -129 0 -234 25 -355 84 -175 85 -290 201 -375 375 -26 55 -56 132 -66 170
-22 91 -22 275 0 367 78 327 347 577 676 627 88 13 231 5 325 -19z m668 -1662
l-37 -38 -108 107 -108 107 37 38 37 38 108 -107 108 -107 -37 -38z m575 -321
l362 -362 -128 -128 -127 -127 -365 365 -365 365 125 125 c69 69 127 125 130
125 3 0 168 -163 368 -363z m446 -473 c3 -9 6 -36 6 -61 0 -103 -87 -181 -191
-171 -27 3 -52 8 -56 12 -7 7 215 236 228 236 4 0 10 -7 13 -16z"/>
<path d="M1409 4477 c-183 -52 -290 -231 -245 -408 40 -154 154 -248 311 -257
110 -6 179 21 256 97 76 77 103 146 97 256 -5 96 -36 165 -104 230 -76 74
-215 110 -315 82z m192 -133 c135 -74 159 -245 49 -355 -143 -143 -379 -45
-380 159 0 60 15 103 54 148 64 76 186 97 277 48z"/>
<path d="M2092 4474 c-30 -20 -30 -68 0 -88 20 -14 98 -16 643 -16 684 0 665
-2 665 60 0 62 19 60 -665 60 -545 0 -623 -2 -643 -16z"/>
<path d="M2087 3902 c-20 -22 -22 -63 -5 -80 17 -17 1289 -17 1306 0 17 17 15
64 -4 82 -14 14 -86 16 -648 16 -600 0 -634 -1 -649 -18z"/>
<path d="M1167 3332 c-22 -24 -21 -55 1 -75 17 -16 108 -17 1106 -17 730 0
1094 3 1107 10 22 12 27 68 7 88 -9 9 -269 12 -1108 12 -1050 0 -1098 -1
-1113 -18z"/>
<path d="M1167 1062 c-22 -24 -21 -55 1 -75 17 -16 91 -17 854 -17 796 0 836
1 851 18 22 24 21 55 -1 75 -17 16 -91 17 -854 17 -796 0 -836 -1 -851 -18z"/>
<path d="M2652 2850 c-123 -32 -225 -93 -323 -190 -73 -73 -94 -101 -132 -180
-54 -112 -77 -209 -77 -320 0 -307 199 -579 495 -677 71 -24 96 -27 215 -27
119 0 144 3 215 27 351 116 555 471 480 832 -52 249 -267 470 -521 535 -102
26 -252 26 -352 0z m302 -105 c282 -60 493 -334 472 -615 -18 -255 -171 -454
-411 -536 -66 -23 -98 -28 -180 -28 -316 -2 -572 233 -601 551 -21 227 120
474 328 576 129 64 256 81 392 52z"/>
</g>
</svg>
