<?xml version="1.0" standalone="no"?>
<!DOCTYPE svg PUBLIC "-//W3C//DTD SVG 20010904//EN"
 "http://www.w3.org/TR/2001/REC-SVG-20010904/DTD/svg10.dtd">
<svg version="1.0" xmlns="http://www.w3.org/2000/svg"
 width="512pt" height="512pt" viewBox="0 0 512 512"
 preserveAspectRatio="xMidYMid meet">

<g transform="translate(0,512) scale(0.1,-0.1)"
fill="#ddd" stroke="none">
<path d="M375 4740 c-109 -35 -203 -126 -244 -235 l-21 -56 2 -1867 3 -1867
27 -73 c73 -201 240 -353 448 -409 61 -17 185 -18 1965 -18 1813 0 1903 1
1965 18 182 52 342 180 418 337 77 158 72 28 72 1736 l0 1532 -26 32 c-50 59
-55 60 -382 60 l-300 0 -4 148 c-4 123 -10 160 -32 228 -53 164 -178 310 -331
385 -148 73 -36 69 -1860 68 -1591 0 -1642 -1 -1700 -19z m174 -284 c15 -8 32
-26 39 -41 9 -20 12 -421 12 -1688 0 -1602 1 -1664 19 -1697 24 -46 72 -73
128 -73 47 0 82 19 117 67 l21 27 0 1710 0 1709 1425 -2 1425 -3 57 -27 c79
-37 142 -98 181 -177 30 -62 32 -72 35 -198 l4 -133 -1402 0 c-1561 0 -1446 5
-1492 -69 l-23 -36 -5 -1535 -5 -1535 -23 -47 c-114 -230 -408 -274 -577 -85
-24 26 -54 74 -67 105 l-23 57 -3 1785 c-2 1251 0 1796 8 1822 20 68 86 96
149 64z m4181 -2193 c0 -786 -4 -1405 -10 -1442 -18 -128 -109 -245 -228 -293
l-57 -23 -1577 -3 -1577 -2 34 72 c69 147 65 40 65 1630 l0 1438 1675 0 1675
0 0 -1377z"/>
<path d="M1715 3067 c-3 -7 -4 -134 -3 -282 l3 -270 55 0 55 0 3 108 3 107 82
0 c106 0 148 13 186 55 78 90 58 226 -43 274 -37 18 -61 21 -189 21 -110 0
-149 -3 -152 -13z m299 -113 c21 -20 20 -73 -1 -96 -13 -15 -31 -18 -100 -18
l-83 0 0 65 0 65 84 0 c64 0 88 -4 100 -16z"/>
<path d="M2271 2809 c-56 -150 -100 -278 -97 -285 4 -9 23 -14 55 -14 l49 0
18 48 c9 26 23 62 30 80 l13 33 87 -3 87 -3 26 -75 26 -75 53 -3 c38 -2 54 1
58 11 3 8 -34 121 -82 253 -122 339 -103 304 -167 304 l-55 0 -101 -271z m178
39 c12 -34 21 -66 21 -70 0 -4 -22 -8 -49 -8 l-48 0 25 70 c13 39 26 70 27 70
2 0 13 -28 24 -62z"/>
<path d="M2785 3067 c-3 -7 -4 -134 -3 -282 l3 -270 55 0 55 0 3 108 3 107 82
0 c106 0 148 13 186 55 78 89 57 226 -43 274 -37 18 -61 21 -189 21 -110 0
-149 -3 -152 -13z m297 -114 c22 -20 23 -70 1 -95 -13 -15 -31 -18 -100 -18
l-83 0 0 65 0 65 82 0 c62 0 86 -4 100 -17z"/>
<path d="M3345 3068 c-3 -8 -4 -135 -3 -283 l3 -270 213 -3 213 -2 -3 52 -3
53 -152 3 -153 3 0 64 0 65 140 0 139 0 6 34 c4 19 2 43 -4 55 -11 20 -20 21
-146 21 l-135 0 0 55 0 54 153 3 152 3 0 50 0 50 -208 3 c-162 2 -209 0 -212
-10z"/>
<path d="M3917 3074 c-4 -4 -7 -133 -7 -286 l0 -279 53 3 52 3 3 108 3 107 93
0 c72 0 96 -4 106 -15 7 -9 15 -50 18 -93 6 -108 11 -114 80 -110 46 2 57 6
60 22 2 10 -2 22 -10 27 -8 5 -15 38 -18 98 -4 67 -10 95 -24 110 -17 19 -17
21 6 51 32 44 33 145 2 187 -44 59 -74 68 -249 71 -88 2 -163 0 -168 -4z m311
-116 c7 -7 12 -29 12 -49 0 -56 -25 -69 -132 -69 l-88 0 0 65 0 65 98 0 c63 0
102 -4 110 -12z"/>
<path d="M1665 1965 c-46 -45 -22 -107 47 -120 18 -3 298 -5 621 -3 l589 3 25
29 c28 33 25 70 -9 99 -19 16 -64 17 -635 17 l-614 0 -24 -25z"/>
<path d="M3492 1983 c-7 -3 -19 -18 -27 -33 -13 -24 -15 -98 -15 -453 0 -270
4 -435 10 -454 6 -17 22 -35 36 -42 17 -8 157 -11 463 -11 428 0 439 0 465 21
l26 20 0 459 0 459 -26 20 c-26 21 -36 21 -473 20 -245 0 -452 -3 -459 -6z"/>
<path d="M1665 1555 c-30 -29 -32 -68 -5 -95 20 -20 33 -20 644 -20 l625 0 21
27 c25 32 20 69 -12 96 -19 16 -64 17 -635 17 l-614 0 -24 -25z"/>
<path d="M1662 1147 c-27 -29 -28 -71 -2 -97 20 -20 33 -20 644 -20 l625 0 21
27 c25 32 20 69 -12 96 -19 16 -64 17 -637 17 l-618 0 -21 -23z"/>
</g>
</svg>
