<?xml version="1.0" standalone="no"?>
<!DOCTYPE svg PUBLIC "-//W3C//DTD SVG 20010904//EN"
 "http://www.w3.org/TR/2001/REC-SVG-20010904/DTD/svg10.dtd">
<svg version="1.0" xmlns="http://www.w3.org/2000/svg"
 width="200pt" height="200pt" viewBox="0 0 200 200"
 preserveAspectRatio="xMidYMid meet">

<g transform="translate(0,200) scale(0.100000,-0.100000)"
fill="#ddd" stroke="none">
<path d="M382 1695 c-19 -14 -22 -25 -22 -91 l0 -74 -73 0 c-97 0 -107 -11
-107 -108 l0 -72 -73 0 c-59 0 -77 -4 -90 -18 -15 -17 -17 -67 -17 -508 0
-408 2 -493 14 -510 14 -18 35 -19 797 -22 690 -2 785 -1 805 13 22 14 24 23
24 90 l0 75 73 0 c97 0 107 11 107 108 l0 72 73 0 c59 0 77 4 90 18 15 17 17
67 17 508 0 408 -2 493 -14 510 -14 18 -35 19 -798 22 -699 2 -785 1 -806 -13z
m1538 -515 l0 -450 -50 0 -50 0 0 382 c0 341 -2 383 -17 400 -15 17 -50 18
-695 18 l-678 0 0 50 0 50 745 0 745 0 0 -450z m-170 -180 l0 -450 -55 0 -55
0 0 388 c0 288 -3 391 -12 400 -9 9 -177 12 -695 12 l-683 0 0 50 0 50 750 0
750 0 0 -450z m-180 -180 l0 -450 -745 0 -745 0 0 450 0 450 745 0 745 0 0
-450z"/>
<path d="M246 1104 c-14 -13 -16 -53 -16 -278 0 -190 3 -265 12 -274 9 -9 90
-12 305 -12 279 0 293 1 303 19 6 12 10 118 10 275 0 218 -2 257 -16 270 -23
24 -575 24 -598 0z m534 -274 l0 -210 -235 0 -235 0 0 210 0 210 235 0 235 0
0 -210z"/>
<path d="M956 745 c-19 -20 -20 -26 -3 -48 11 -15 28 -17 136 -15 105 3 126 6
135 21 8 12 8 22 0 35 -16 25 -244 31 -268 7z"/>
<path d="M956 604 c-19 -19 -20 -36 -4 -52 13 -13 431 -18 462 -6 22 9 20 51
-3 64 -12 6 -104 10 -230 10 -177 0 -212 -2 -225 -16z"/>
</g>
</svg>
