<?xml version="1.0" encoding="UTF-8" standalone="no"?>
<!-- Generator: Adobe Illustrator 25.0.1, SVG Export Plug-In . SVG Version: 6.00 Build 0)  -->

<svg
   version="1.0"
   id="katman_1"
   x="0px"
   y="0px"
   viewBox="0 0 389.79999 126.6"
   xml:space="preserve"
   sodipodi:docname="google-black-seeklogo.svg"
   width="389.79999"
   height="126.6"
   xmlns:inkscape="http://www.inkscape.org/namespaces/inkscape"
   xmlns:sodipodi="http://sodipodi.sourceforge.net/DTD/sodipodi-0.dtd"
   xmlns="http://www.w3.org/2000/svg"
   xmlns:svg="http://www.w3.org/2000/svg"><defs
   id="defs1" /><sodipodi:namedview
   id="namedview1"
   pagecolor="#ffffff"
   bordercolor="#000000"
   borderopacity="0.25"
   inkscape:showpageshadow="2"
   inkscape:pageopacity="0.0"
   inkscape:pagecheckerboard="0"
   inkscape:deskcolor="#d1d1d1" />&#10;<g
   id="g1"
   transform="translate(-105.1,-136.7)">&#10;	<path
   d="m 155.5,181.4 v 13.4 h 32.2 c -1.6,18.7 -17.3,26.7 -32.2,26.7 -19,0 -35.6,-14.8 -35.6,-35.6 0,-20.2 15.8,-35.8 35.6,-35.8 15.3,0 24.3,9.7 24.3,9.7 l 9.4,-9.7 c 0,0 -12.1,-13.4 -34.2,-13.4 -28.2,0 -49.9,23.5 -49.9,48.9 0,24.9 20.5,49.2 50.6,49.2 26.5,0 45.9,-18 45.9,-44.6 0,-5.6 -0.8,-8.9 -0.8,-8.9 z m 82.7,-9.6 c -18.7,0 -32,14.4 -32,31.3 0,17.1 13,31.8 32.2,31.8 17.4,0 31.7,-13.2 31.7,-31.4 0.1,-21 -16.5,-31.7 -31.9,-31.7 z m 0.2,12.3 c 9.2,0 17.9,7.3 17.9,19.2 0,11.6 -8.7,19.1 -17.9,19.1 -10.2,0 -18.2,-8.1 -18.2,-19.2 0,-10.9 7.9,-19.1 18.2,-19.1 z m 69.5,-12.3 c -18.7,0 -32,14.4 -32,31.3 0,17.1 13,31.8 32.2,31.8 17.4,0 31.7,-13.2 31.7,-31.4 0,-21 -16.6,-31.7 -31.9,-31.7 z m 0.2,12.3 c 9.2,0 17.9,7.3 17.9,19.2 0,11.6 -8.7,19.1 -17.9,19.1 -10.2,0 -18.2,-8.1 -18.2,-19.2 -0.1,-10.9 7.8,-19.1 18.2,-19.1 z m 68.1,-12.3 c -17.1,0 -30.6,14.8 -30.6,31.5 0,19 15.6,31.6 30.3,31.6 9.1,0 13.9,-3.6 17.5,-7.7 v 6.2 c 0,10.9 -6.7,17.4 -16.7,17.4 -9.7,0 -14.6,-7.2 -16.3,-11.2 l -12.2,5.1 c 4.3,9.1 13.1,18.6 28.6,18.6 17,0 30,-10.6 30,-32.9 v -56.7 h -13.4 v 5.3 c -4.2,-4.4 -9.8,-7.2 -17.2,-7.2 z m 1.2,12.4 c 8.4,0 17,7.1 17,19.2 0,12.3 -8.6,19.1 -17.2,19.1 -9.1,0 -17.6,-7.3 -17.6,-19 0,-12.1 8.8,-19.3 17.8,-19.3 z m 88.7,-12.5 c -16.1,0 -29.7,12.7 -29.7,31.5 0,19.9 15.1,31.6 31.3,31.6 13.5,0 21.7,-7.3 26.7,-13.8 l -11,-7.3 c -2.9,4.4 -7.6,8.7 -15.6,8.7 -9,0 -13.1,-4.9 -15.6,-9.6 l 42.7,-17.5 -2.2,-5.1 c -4.3,-10.1 -13.9,-18.5 -26.6,-18.5 z m 0.5,12.1 c 5.8,0 10,3.1 11.8,6.7 l -28.5,11.8 c -1.2,-9.1 7.5,-18.5 16.7,-18.5 z M 416,233 h 14 v -93 h -14 z"
   id="path1" />&#10;</g>&#10;</svg>
